# Blender 4.2.2 LTS
# www.blender.org
mtllib untitled.mtl
o Plane
v 1.000000 -0.000000 0.000000
v -1.000000 0.000000 -0.000000
v 1.000000 2.000000 0.000000
v -1.000000 2.000000 0.000000
v 0.818182 -0.000000 0.000000
v 0.636364 -0.000000 0.000000
v 0.454545 -0.000000 0.000000
v 0.272727 -0.000000 0.000000
v 0.090909 -0.000000 0.000000
v -0.090909 0.000000 -0.000000
v -0.272727 0.000000 -0.000000
v -0.454545 0.000000 -0.000000
v -0.636364 0.000000 -0.000000
v -0.818182 0.000000 -0.000000
v -0.818182 2.000000 0.000000
v -0.636364 2.000000 0.000000
v -0.454545 2.000000 0.000000
v -0.272727 2.000000 0.000000
v -0.090909 2.000000 0.000000
v 0.090909 2.000000 0.000000
v 0.272727 2.000000 0.000000
v 0.454545 2.000000 0.000000
v 0.636364 2.000000 0.000000
v 0.818182 2.000000 0.000000
v 1.000000 1.818182 0.000000
v 1.000000 1.636364 0.000000
v 1.000000 1.454545 0.000000
v 1.000000 1.272727 0.000000
v 1.000000 1.090909 0.000000
v 1.000000 0.909091 0.000000
v 1.000000 0.727273 0.000000
v 1.000000 0.545455 0.000000
v 1.000000 0.363636 0.000000
v 1.000000 0.181818 0.000000
v -1.000000 0.181818 0.000000
v -1.000000 0.363636 0.000000
v -1.000000 0.545455 0.000000
v -1.000000 0.727273 0.000000
v -1.000000 0.909091 0.000000
v -1.000000 1.090909 0.000000
v -1.000000 1.272727 0.000000
v -1.000000 1.454545 0.000000
v -1.000000 1.636364 0.000000
v -1.000000 1.818182 0.000000
v 0.818182 0.181818 0.000000
v 0.818182 0.363636 0.000000
v 0.818182 0.545455 0.000000
v 0.818182 0.727273 0.000000
v 0.818182 0.909091 0.000000
v 0.818182 1.090909 0.000000
v 0.818182 1.272727 0.000000
v 0.818182 1.454545 0.000000
v 0.818182 1.636364 0.000000
v 0.818182 1.818182 0.000000
v 0.636364 0.181818 0.000000
v 0.636364 0.363636 0.000000
v 0.636364 0.545455 0.000000
v 0.636364 0.727273 0.000000
v 0.636364 0.909091 0.000000
v 0.636364 1.090909 0.000000
v 0.636364 1.272727 0.000000
v 0.636364 1.454545 0.000000
v 0.636364 1.636364 0.000000
v 0.636364 1.818182 0.000000
v 0.454545 0.181818 0.000000
v 0.454545 0.363636 0.000000
v 0.454545 0.545455 0.000000
v 0.454545 0.727273 0.000000
v 0.454545 0.909091 0.000000
v 0.454545 1.090909 0.000000
v 0.454545 1.272727 0.000000
v 0.454545 1.454545 0.000000
v 0.454545 1.636364 0.000000
v 0.454545 1.818182 0.000000
v 0.272727 0.181818 0.000000
v 0.272727 0.363636 0.000000
v 0.272727 0.545455 0.000000
v 0.272727 0.727273 0.000000
v 0.272727 0.909091 0.000000
v 0.272727 1.090909 0.000000
v 0.272727 1.272727 0.000000
v 0.272727 1.454545 0.000000
v 0.272727 1.636364 0.000000
v 0.272727 1.818182 0.000000
v 0.090909 0.181818 0.000000
v 0.090909 0.363636 0.000000
v 0.090909 0.545455 0.000000
v 0.090909 0.727273 0.000000
v 0.090909 0.909091 0.000000
v 0.090909 1.090909 0.000000
v 0.090909 1.272727 0.000000
v 0.090909 1.454545 0.000000
v 0.090909 1.636364 0.000000
v 0.090909 1.818182 0.000000
v -0.090909 0.181818 0.000000
v -0.090909 0.363636 0.000000
v -0.090909 0.545455 0.000000
v -0.090909 0.727273 0.000000
v -0.090909 0.909091 0.000000
v -0.090909 1.090909 0.000000
v -0.090909 1.272727 0.000000
v -0.090909 1.454545 0.000000
v -0.090909 1.636364 0.000000
v -0.090909 1.818182 0.000000
v -0.272727 0.181818 0.000000
v -0.272727 0.363636 0.000000
v -0.272727 0.545455 0.000000
v -0.272727 0.727273 0.000000
v -0.272727 0.909091 0.000000
v -0.272727 1.090909 0.000000
v -0.272727 1.272727 0.000000
v -0.272727 1.454545 0.000000
v -0.272727 1.636364 0.000000
v -0.272727 1.818182 0.000000
v -0.454545 0.181818 0.000000
v -0.454545 0.363636 0.000000
v -0.454545 0.545455 0.000000
v -0.454545 0.727273 0.000000
v -0.454545 0.909091 0.000000
v -0.454545 1.090909 0.000000
v -0.454545 1.272727 0.000000
v -0.454545 1.454545 0.000000
v -0.454545 1.636364 0.000000
v -0.454545 1.818182 0.000000
v -0.636364 0.181818 0.000000
v -0.636364 0.363636 0.000000
v -0.636364 0.545455 0.000000
v -0.636364 0.727273 0.000000
v -0.636364 0.909091 0.000000
v -0.636364 1.090909 0.000000
v -0.636364 1.272727 0.000000
v -0.636364 1.454545 0.000000
v -0.636364 1.636364 0.000000
v -0.636364 1.818182 0.000000
v -0.818182 0.181818 0.000000
v -0.818182 0.363636 0.000000
v -0.818182 0.545455 0.000000
v -0.818182 0.727273 0.000000
v -0.818182 0.909091 0.000000
v -0.818182 1.090909 0.000000
v -0.818182 1.272727 0.000000
v -0.818182 1.454545 0.000000
v -0.818182 1.636364 0.000000
v -0.818182 1.818182 0.000000
vn -0.0000 -0.0000 -1.0000
vt 0.909091 0.909091
vt 1.000000 0.909091
vt 1.000000 1.000000
vt 0.909091 1.000000
vt 0.000000 0.909091
vt 0.090909 0.909091
vt 0.090909 1.000000
vt 0.000000 1.000000
vt 0.181818 0.909091
vt 0.181818 1.000000
vt 0.272727 0.909091
vt 0.272727 1.000000
vt 0.363636 0.909091
vt 0.363636 1.000000
vt 0.454545 0.909091
vt 0.454545 1.000000
vt 0.545454 0.909091
vt 0.545455 1.000000
vt 0.636364 0.909091
vt 0.636364 1.000000
vt 0.727273 0.909091
vt 0.727273 1.000000
vt 0.818182 0.909091
vt 0.818182 1.000000
vt 0.818182 0.000000
vt 0.909091 0.000000
vt 0.909091 0.090909
vt 0.818182 0.090909
vt 0.909091 0.181818
vt 0.818182 0.181818
vt 0.909091 0.272727
vt 0.818182 0.272727
vt 0.909091 0.363636
vt 0.818182 0.363636
vt 0.909091 0.454545
vt 0.818182 0.454545
vt 0.909091 0.545455
vt 0.818182 0.545455
vt 0.909091 0.636364
vt 0.818182 0.636364
vt 0.909091 0.727273
vt 0.818182 0.727273
vt 0.909091 0.818182
vt 0.818182 0.818182
vt 0.727273 0.000000
vt 0.727273 0.090909
vt 0.727273 0.181818
vt 0.727273 0.272727
vt 0.727273 0.363636
vt 0.727273 0.454545
vt 0.727273 0.545455
vt 0.727273 0.636364
vt 0.727273 0.727273
vt 0.727273 0.818182
vt 0.636364 0.000000
vt 0.636364 0.090909
vt 0.636364 0.181818
vt 0.636364 0.272727
vt 0.636364 0.363636
vt 0.636364 0.454545
vt 0.636364 0.545455
vt 0.636364 0.636364
vt 0.636364 0.727273
vt 0.636364 0.818182
vt 0.545455 0.000000
vt 0.545455 0.090909
vt 0.545455 0.181818
vt 0.545455 0.272727
vt 0.545455 0.363636
vt 0.545455 0.454545
vt 0.545455 0.545455
vt 0.545455 0.636364
vt 0.545455 0.727273
vt 0.545455 0.818182
vt 0.454545 0.000000
vt 0.454545 0.090909
vt 0.454545 0.181818
vt 0.454545 0.272727
vt 0.454545 0.363636
vt 0.454545 0.454545
vt 0.454545 0.545455
vt 0.454545 0.636364
vt 0.454545 0.727273
vt 0.454545 0.818182
vt 0.363636 0.000000
vt 0.363636 0.090909
vt 0.363636 0.181818
vt 0.363636 0.272727
vt 0.363636 0.363636
vt 0.363636 0.454545
vt 0.363636 0.545455
vt 0.363636 0.636364
vt 0.363636 0.727273
vt 0.363636 0.818182
vt 0.272727 0.000000
vt 0.272727 0.090909
vt 0.272727 0.181818
vt 0.272727 0.272727
vt 0.272727 0.363636
vt 0.272727 0.454545
vt 0.272727 0.545455
vt 0.272727 0.636364
vt 0.272727 0.727273
vt 0.272727 0.818182
vt 0.181818 0.000000
vt 0.181818 0.090909
vt 0.181818 0.181818
vt 0.181818 0.272727
vt 0.181818 0.363636
vt 0.181818 0.454545
vt 0.181818 0.545455
vt 0.181818 0.636364
vt 0.181818 0.727273
vt 0.181818 0.818182
vt 0.090909 0.000000
vt 0.090909 0.090909
vt 0.090909 0.181818
vt 0.090909 0.272727
vt 0.090909 0.363636
vt 0.090909 0.454546
vt 0.090909 0.545455
vt 0.090909 0.636364
vt 0.090909 0.727273
vt 0.090909 0.818182
vt 0.000000 0.000000
vt 0.000000 0.090909
vt 0.000000 0.181818
vt 0.000000 0.272727
vt 0.000000 0.363636
vt 0.000000 0.454545
vt 0.000000 0.545455
vt 0.000000 0.636364
vt 0.000000 0.727273
vt 0.000000 0.818182
vt 1.000000 0.000000
vt 1.000000 0.090909
vt 1.000000 0.181818
vt 1.000000 0.272727
vt 1.000000 0.363636
vt 1.000000 0.454545
vt 1.000000 0.545455
vt 1.000000 0.636364
vt 1.000000 0.727273
vt 1.000000 0.818182
s 0
f 144/1/1 44/2/1 4/3/1 15/4/1
f 25/5/1 54/6/1 24/7/1 3/8/1
f 54/6/1 64/9/1 23/10/1 24/7/1
f 64/9/1 74/11/1 22/12/1 23/10/1
f 74/11/1 84/13/1 21/14/1 22/12/1
f 84/13/1 94/15/1 20/16/1 21/14/1
f 94/15/1 104/17/1 19/18/1 20/16/1
f 104/17/1 114/19/1 18/20/1 19/18/1
f 114/19/1 124/21/1 17/22/1 18/20/1
f 124/21/1 134/23/1 16/24/1 17/22/1
f 134/23/1 144/1/1 15/4/1 16/24/1
f 13/25/1 14/26/1 135/27/1 125/28/1
f 125/28/1 135/27/1 136/29/1 126/30/1
f 126/30/1 136/29/1 137/31/1 127/32/1
f 127/32/1 137/31/1 138/33/1 128/34/1
f 128/34/1 138/33/1 139/35/1 129/36/1
f 129/36/1 139/35/1 140/37/1 130/38/1
f 130/38/1 140/37/1 141/39/1 131/40/1
f 131/40/1 141/39/1 142/41/1 132/42/1
f 132/42/1 142/41/1 143/43/1 133/44/1
f 133/44/1 143/43/1 144/1/1 134/23/1
f 12/45/1 13/25/1 125/28/1 115/46/1
f 115/46/1 125/28/1 126/30/1 116/47/1
f 116/47/1 126/30/1 127/32/1 117/48/1
f 117/48/1 127/32/1 128/34/1 118/49/1
f 118/49/1 128/34/1 129/36/1 119/50/1
f 119/50/1 129/36/1 130/38/1 120/51/1
f 120/51/1 130/38/1 131/40/1 121/52/1
f 121/52/1 131/40/1 132/42/1 122/53/1
f 122/53/1 132/42/1 133/44/1 123/54/1
f 123/54/1 133/44/1 134/23/1 124/21/1
f 11/55/1 12/45/1 115/46/1 105/56/1
f 105/56/1 115/46/1 116/47/1 106/57/1
f 106/57/1 116/47/1 117/48/1 107/58/1
f 107/58/1 117/48/1 118/49/1 108/59/1
f 108/59/1 118/49/1 119/50/1 109/60/1
f 109/60/1 119/50/1 120/51/1 110/61/1
f 110/61/1 120/51/1 121/52/1 111/62/1
f 111/62/1 121/52/1 122/53/1 112/63/1
f 112/63/1 122/53/1 123/54/1 113/64/1
f 113/64/1 123/54/1 124/21/1 114/19/1
f 10/65/1 11/55/1 105/56/1 95/66/1
f 95/66/1 105/56/1 106/57/1 96/67/1
f 96/67/1 106/57/1 107/58/1 97/68/1
f 97/68/1 107/58/1 108/59/1 98/69/1
f 98/69/1 108/59/1 109/60/1 99/70/1
f 99/70/1 109/60/1 110/61/1 100/71/1
f 100/71/1 110/61/1 111/62/1 101/72/1
f 101/72/1 111/62/1 112/63/1 102/73/1
f 102/73/1 112/63/1 113/64/1 103/74/1
f 103/74/1 113/64/1 114/19/1 104/17/1
f 9/75/1 10/65/1 95/66/1 85/76/1
f 85/76/1 95/66/1 96/67/1 86/77/1
f 86/77/1 96/67/1 97/68/1 87/78/1
f 87/78/1 97/68/1 98/69/1 88/79/1
f 88/79/1 98/69/1 99/70/1 89/80/1
f 89/80/1 99/70/1 100/71/1 90/81/1
f 90/81/1 100/71/1 101/72/1 91/82/1
f 91/82/1 101/72/1 102/73/1 92/83/1
f 92/83/1 102/73/1 103/74/1 93/84/1
f 93/84/1 103/74/1 104/17/1 94/15/1
f 8/85/1 9/75/1 85/76/1 75/86/1
f 75/86/1 85/76/1 86/77/1 76/87/1
f 76/87/1 86/77/1 87/78/1 77/88/1
f 77/88/1 87/78/1 88/79/1 78/89/1
f 78/89/1 88/79/1 89/80/1 79/90/1
f 79/90/1 89/80/1 90/81/1 80/91/1
f 80/91/1 90/81/1 91/82/1 81/92/1
f 81/92/1 91/82/1 92/83/1 82/93/1
f 82/93/1 92/83/1 93/84/1 83/94/1
f 83/94/1 93/84/1 94/15/1 84/13/1
f 7/95/1 8/85/1 75/86/1 65/96/1
f 65/96/1 75/86/1 76/87/1 66/97/1
f 66/97/1 76/87/1 77/88/1 67/98/1
f 67/98/1 77/88/1 78/89/1 68/99/1
f 68/99/1 78/89/1 79/90/1 69/100/1
f 69/100/1 79/90/1 80/91/1 70/101/1
f 70/101/1 80/91/1 81/92/1 71/102/1
f 71/102/1 81/92/1 82/93/1 72/103/1
f 72/103/1 82/93/1 83/94/1 73/104/1
f 73/104/1 83/94/1 84/13/1 74/11/1
f 6/105/1 7/95/1 65/96/1 55/106/1
f 55/106/1 65/96/1 66/97/1 56/107/1
f 56/107/1 66/97/1 67/98/1 57/108/1
f 57/108/1 67/98/1 68/99/1 58/109/1
f 58/109/1 68/99/1 69/100/1 59/110/1
f 59/110/1 69/100/1 70/101/1 60/111/1
f 60/111/1 70/101/1 71/102/1 61/112/1
f 61/112/1 71/102/1 72/103/1 62/113/1
f 62/113/1 72/103/1 73/104/1 63/114/1
f 63/114/1 73/104/1 74/11/1 64/9/1
f 5/115/1 6/105/1 55/106/1 45/116/1
f 45/116/1 55/106/1 56/107/1 46/117/1
f 46/117/1 56/107/1 57/108/1 47/118/1
f 47/118/1 57/108/1 58/109/1 48/119/1
f 48/119/1 58/109/1 59/110/1 49/120/1
f 49/120/1 59/110/1 60/111/1 50/121/1
f 50/121/1 60/111/1 61/112/1 51/122/1
f 51/122/1 61/112/1 62/113/1 52/123/1
f 52/123/1 62/113/1 63/114/1 53/124/1
f 53/124/1 63/114/1 64/9/1 54/6/1
f 1/125/1 5/115/1 45/116/1 34/126/1
f 34/126/1 45/116/1 46/117/1 33/127/1
f 33/127/1 46/117/1 47/118/1 32/128/1
f 32/128/1 47/118/1 48/119/1 31/129/1
f 31/129/1 48/119/1 49/120/1 30/130/1
f 30/130/1 49/120/1 50/121/1 29/131/1
f 29/131/1 50/121/1 51/122/1 28/132/1
f 28/132/1 51/122/1 52/123/1 27/133/1
f 27/133/1 52/123/1 53/124/1 26/134/1
f 26/134/1 53/124/1 54/6/1 25/5/1
f 14/26/1 2/135/1 35/136/1 135/27/1
f 135/27/1 35/136/1 36/137/1 136/29/1
f 136/29/1 36/137/1 37/138/1 137/31/1
f 137/31/1 37/138/1 38/139/1 138/33/1
f 138/33/1 38/139/1 39/140/1 139/35/1
f 139/35/1 39/140/1 40/141/1 140/37/1
f 140/37/1 40/141/1 41/142/1 141/39/1
f 141/39/1 41/142/1 42/143/1 142/41/1
f 142/41/1 42/143/1 43/144/1 143/43/1
f 143/43/1 43/144/1 44/2/1 144/1/1
